<svg width="18" height="18" viewBox="0 0 18 18" fill="none" xmlns="http://www.w3.org/2000/svg">
<path d="M10.7432 4.1958C11.6522 4.19591 12.3915 4.82973 12.3916 5.60889V16.9136L7.44531 14.3696L2.5 16.9136V5.60889C2.50012 4.8297 3.23938 4.19587 4.14844 4.1958H10.7432ZM4.14844 5.60889V14.4175L7.44531 12.7222L10.7432 14.4175V5.60889H4.14844ZM13.8506 1.08643C14.7598 1.08643 15.5 1.73035 15.5 2.52197V13.2388L13.8506 11.4526V3.95752C13.8506 3.16587 13.1113 2.52197 12.2021 2.52197H5.6084C5.60843 1.73035 6.34766 1.08643 7.25684 1.08643H13.8506Z" fill="url(#paint0_linear_828_6458)"/>
<defs>
<linearGradient id="paint0_linear_828_6458" x1="2.50025" y1="1.08643" x2="18.3825" y2="13.3767" gradientUnits="userSpaceOnUse">
<stop stop-color="white"/>
<stop offset="0.730769" stop-color="#E1ECFF"/>
<stop offset="0.9375" stop-color="#C2FFE5"/>
</linearGradient>
</defs>
</svg>
