<svg width="18" height="18" viewBox="0 0 18 18" fill="none" xmlns="http://www.w3.org/2000/svg">
<path d="M13.125 10.125C14.7795 10.125 16.125 11.4705 16.125 13.125C16.125 14.7795 14.7795 16.125 13.125 16.125C11.4705 16.125 10.125 14.7795 10.125 13.125C10.125 11.4705 11.4705 10.125 13.125 10.125ZM7.5 9.75C7.69891 9.75 7.88962 9.82907 8.03027 9.96973C8.17093 10.1104 8.25 10.3011 8.25 10.5V15C8.25 15.1989 8.17093 15.3896 8.03027 15.5303C7.88962 15.6709 7.69891 15.75 7.5 15.75H3C2.80109 15.75 2.61038 15.6709 2.46973 15.5303C2.32907 15.3896 2.25 15.1989 2.25 15V10.5C2.25 10.3011 2.32907 10.1104 2.46973 9.96973C2.61038 9.82907 2.80109 9.75 3 9.75H7.5ZM13.125 11.625C12.2978 11.625 11.625 12.2978 11.625 13.125C11.625 13.9522 12.2978 14.625 13.125 14.625C13.9522 14.625 14.625 13.9522 14.625 13.125C14.625 12.2978 13.9522 11.625 13.125 11.625ZM3.75 11.25V14.25H6.75V11.25H3.75ZM7.5 2.25C7.69891 2.25 7.88962 2.32907 8.03027 2.46973C8.17093 2.61038 8.25 2.80109 8.25 3V7.5C8.25 7.69891 8.17093 7.88962 8.03027 8.03027C7.88962 8.17093 7.69891 8.25 7.5 8.25H3C2.80109 8.25 2.61038 8.17093 2.46973 8.03027C2.32907 7.88962 2.25 7.69891 2.25 7.5V3C2.25 2.80109 2.32907 2.61038 2.46973 2.46973C2.61038 2.32907 2.80109 2.25 3 2.25H7.5ZM15 2.25C15.1989 2.25 15.3896 2.32907 15.5303 2.46973C15.6709 2.61038 15.75 2.80109 15.75 3V7.5C15.75 7.69891 15.6709 7.88962 15.5303 8.03027C15.3896 8.17093 15.1989 8.25 15 8.25H10.5C10.3011 8.25 10.1104 8.17093 9.96973 8.03027C9.82907 7.88962 9.75 7.69891 9.75 7.5V3C9.75 2.80109 9.82907 2.61038 9.96973 2.46973C10.1104 2.32907 10.3011 2.25 10.5 2.25H15ZM3.75 3.75V6.75H6.75V3.75H3.75ZM11.25 3.75V6.75H14.25V3.75H11.25Z" fill="url(#paint0_linear_828_6441)"/>
<defs>
<linearGradient id="paint0_linear_828_6441" x1="2.25027" y1="2.25" x2="16.6082" y2="15.7769" gradientUnits="userSpaceOnUse">
<stop stop-color="white"/>
<stop offset="0.730769" stop-color="#E1ECFF"/>
<stop offset="0.9375" stop-color="#C2FFE5"/>
</linearGradient>
</defs>
</svg>
