<svg width="18" height="18" viewBox="0 0 18 18" fill="none" xmlns="http://www.w3.org/2000/svg">
<path fill-rule="evenodd" clip-rule="evenodd" d="M9.75048 1.50049C10.5776 1.50067 11.2505 2.17335 11.2505 3.00049V3.44873C11.7601 3.66081 12.2385 3.94146 12.6724 4.28271L13.0688 4.05322C13.761 3.65353 14.7183 3.91227 15.1167 4.60205L15.8667 5.89893C16.0652 6.24336 16.1188 6.65259 16.0161 7.03662C15.9133 7.42075 15.6619 7.74843 15.3179 7.94775L14.939 8.1665C15.0195 8.71946 15.0194 9.28151 14.939 9.83447L15.3179 10.0542C15.6621 10.2534 15.9133 10.5811 16.0161 10.9653C16.1188 11.3494 16.0654 11.7586 15.8667 12.103L15.1167 13.3999C14.7168 14.0889 13.761 14.3452 13.0688 13.9478L12.6724 13.7183C12.2384 14.059 11.7598 14.3392 11.2505 14.5513V15.0005C11.2503 15.8275 10.5775 16.5003 9.75048 16.5005H8.25048C7.42333 16.5005 6.75064 15.8276 6.75048 15.0005V14.5513C6.24082 14.3392 5.76248 14.0586 5.3286 13.7173L4.93114 13.9468C4.2405 14.345 3.28263 14.0874 2.88427 13.3999L2.13427 12.1021C1.93575 11.7576 1.88127 11.3485 1.98388 10.9644C2.08665 10.5801 2.33799 10.2517 2.68212 10.0522L3.06103 9.8335C2.98021 9.28078 2.98024 8.71922 3.06103 8.1665L2.68212 7.94678C2.33799 7.74758 2.08665 7.41976 1.98388 7.03564C1.88126 6.6516 1.93559 6.24228 2.13427 5.89795L2.88329 4.60107C3.2816 3.91216 4.23828 3.65428 4.93114 4.05225L5.3286 4.28174C5.76262 3.94106 6.24111 3.6608 6.75048 3.44873V3.00049C6.75048 2.17324 7.42323 1.50049 8.25048 1.50049H9.75048ZM8.25048 3.00049V3.9751C8.25041 4.13572 8.19861 4.29231 8.10302 4.42139C8.00746 4.55041 7.87277 4.64498 7.71923 4.69189C7.05048 4.8995 6.43853 5.25912 5.93114 5.7417C5.81417 5.85337 5.66398 5.92367 5.50341 5.94287C5.34289 5.96206 5.18048 5.92903 5.04052 5.84814L4.18114 5.35107L3.4331 6.64795L4.27489 7.13525C4.41584 7.21654 4.52668 7.34196 4.59032 7.4917C4.65389 7.64155 4.66689 7.80839 4.62743 7.96631C4.54343 8.30531 4.50048 8.65399 4.50048 9.00049C4.501 9.34882 4.54375 9.6958 4.62841 10.0337C4.66775 10.1917 4.65497 10.3584 4.5913 10.5083C4.52757 10.6582 4.41604 10.7834 4.27489 10.8647L3.43212 11.353L4.18212 12.6499L5.04052 12.1528C5.1802 12.0713 5.34278 12.0371 5.50341 12.0562C5.66421 12.0752 5.81437 12.1471 5.93114 12.2593C6.43869 12.7415 7.05068 13.1002 7.71923 13.3081C7.87282 13.355 8.00744 13.4505 8.10302 13.5796C8.19838 13.7085 8.25035 13.8645 8.25048 14.0249V15.0005H9.75145L9.75048 14.0249C9.75061 13.8646 9.80167 13.7085 9.89696 13.5796C9.99248 13.4506 10.1273 13.355 10.2808 13.3081C10.9494 13.1005 11.5615 12.7417 12.0688 12.2593C12.1857 12.1475 12.336 12.0764 12.4966 12.0571C12.6573 12.0379 12.8204 12.0717 12.9604 12.1528L13.8188 12.6479L14.5679 11.3511L13.7251 10.8647C13.584 10.7834 13.4734 10.6582 13.4097 10.5083C13.3459 10.3584 13.3322 10.1918 13.3716 10.0337C13.4563 9.69404 13.5005 9.34614 13.5005 9.00049C13.5005 8.65399 13.4565 8.30531 13.3725 7.96631C13.3333 7.80858 13.3463 7.64235 13.4097 7.49268C13.4733 7.34276 13.5841 7.21672 13.7251 7.13525L14.5679 6.64893L13.8179 5.35205L12.9604 5.84814C12.8203 5.92894 12.6572 5.96207 12.4966 5.94287C12.3361 5.92361 12.1859 5.85316 12.0688 5.7417C11.5613 5.25939 10.9494 4.8998 10.2808 4.69189C10.1273 4.64495 9.99246 4.55034 9.89696 4.42139C9.80143 4.29234 9.75055 4.13566 9.75048 3.9751V3.00049H8.25048ZM9.00048 6.00049C10.6548 6.00066 12.0005 7.34609 12.0005 9.00049C12.0003 10.6547 10.6547 12.0003 9.00048 12.0005C7.34608 12.0005 6.00064 10.6548 6.00048 9.00049C6.00048 7.34599 7.34598 6.00049 9.00048 6.00049ZM9.00048 7.50049C8.18748 7.50049 7.50048 8.18749 7.50048 9.00049C7.50065 9.81335 8.18758 10.5005 9.00048 10.5005C9.81324 10.5003 10.5003 9.81325 10.5005 9.00049C10.5005 8.18759 9.81334 7.50067 9.00048 7.50049Z" fill="url(#paint0_linear_828_6466)"/>
<defs>
<linearGradient id="paint0_linear_828_6466" x1="1.93338" y1="1.50049" x2="17.3734" y2="15.2072" gradientUnits="userSpaceOnUse">
<stop stop-color="white"/>
<stop offset="0.730769" stop-color="#E1ECFF"/>
<stop offset="0.9375" stop-color="#C2FFE5"/>
</linearGradient>
</defs>
</svg>
