<svg width="18" height="18" viewBox="0 0 18 18" fill="none" xmlns="http://www.w3.org/2000/svg">
<path d="M11.2496 1.50049C12.0769 1.50049 12.7496 2.17324 12.7496 3.00049V4.50049H14.9996C15.8269 4.50049 16.4996 5.17324 16.4996 6.00049V13.5005C16.4995 14.3276 15.8268 15.0005 14.9996 15.0005H2.99963C2.17267 15.0003 1.4998 14.3275 1.49963 13.5005V6.00049C1.49963 5.17338 2.17257 4.50071 2.99963 4.50049H5.24963V3.00049C5.24963 2.17338 5.92257 1.50071 6.74963 1.50049H11.2496ZM2.99963 6.00049V13.5005H15.0006L14.9996 6.00049H2.99963ZM11.9996 10.4995H5.99963V9.00049H11.9996V10.4995ZM6.74963 3.00049V4.50049H11.2496V3.00049H6.74963Z" fill="url(#paint0_linear_828_6445)"/>
<defs>
<linearGradient id="paint0_linear_828_6445" x1="1.49993" y1="1.50049" x2="15.48" y2="16.1349" gradientUnits="userSpaceOnUse">
<stop stop-color="white"/>
<stop offset="0.730769" stop-color="#E1ECFF"/>
<stop offset="0.9375" stop-color="#C2FFE5"/>
</linearGradient>
</defs>
</svg>
