<svg width="18" height="18" viewBox="0 0 18 18" fill="none" xmlns="http://www.w3.org/2000/svg">
<path d="M8.25 9.75C10.7318 9.75 12.75 11.7682 12.75 14.25V15H11.25V14.25C11.25 12.5955 9.9045 11.25 8.25 11.25H6C4.3455 11.25 3 12.5955 3 14.25V15H1.5V14.25C1.5 11.7682 3.51825 9.75 6 9.75H8.25ZM10.9141 2.37598C12.135 3.18523 12.8824 4.36809 13.0166 5.70605C13.1074 6.604 12.9099 7.50773 12.4531 8.28613C15.0329 9.53642 15.75 12.1583 15.75 13.5H14.25C14.25 13.4677 14.2131 10.2757 11.0391 9.3457L9.82617 8.98926L10.7197 8.0957C11.0117 7.80563 11.2349 7.45377 11.374 7.06641C11.5131 6.67915 11.5642 6.26588 11.5234 5.85645C11.4349 4.9752 10.9242 4.1815 10.085 3.625L10.9141 2.37598ZM7.125 3C8.7795 3 10.125 4.3455 10.125 6C10.125 7.6545 8.7795 9 7.125 9C5.4705 9 4.125 7.6545 4.125 6C4.125 4.3455 5.4705 3 7.125 3ZM7.125 4.5C6.29775 4.5 5.625 5.17275 5.625 6C5.625 6.82725 6.29775 7.5 7.125 7.5C7.95225 7.5 8.625 6.82725 8.625 6C8.625 5.17275 7.95225 4.5 7.125 4.5Z" fill="url(#paint0_linear_828_6449)"/>
<defs>
<linearGradient id="paint0_linear_828_6449" x1="1.50028" y1="2.37598" x2="14.5622" y2="16.2669" gradientUnits="userSpaceOnUse">
<stop stop-color="white"/>
<stop offset="0.730769" stop-color="#E1ECFF"/>
<stop offset="0.9375" stop-color="#C2FFE5"/>
</linearGradient>
</defs>
</svg>
