<svg width="18" height="18" viewBox="0 0 18 18" fill="none" xmlns="http://www.w3.org/2000/svg">
<path d="M9.10522 1.5C11.0941 1.50007 13.0015 2.29005 14.408 3.69629C15.8145 5.10281 16.6052 7.01088 16.6052 9C16.6052 10.4834 16.1647 11.9336 15.3406 13.167C14.5165 14.4001 13.3455 15.3611 11.9753 15.9287C10.6049 16.4964 9.09621 16.6449 7.64136 16.3555C6.18675 16.066 4.85027 15.3524 3.80151 14.3037C2.75262 13.2548 2.03817 11.9177 1.74878 10.4629C1.45949 9.00818 1.60796 7.50019 2.17554 6.12988C2.74319 4.75944 3.70486 3.58778 4.93823 2.76367C6.17156 1.93964 7.62194 1.5 9.10522 1.5ZM11.4011 3.45703C10.3048 3.00291 9.09821 2.88372 7.93433 3.11523C6.77047 3.34675 5.70116 3.91871 4.86206 4.75781C4.02323 5.59678 3.45199 6.66553 3.22046 7.8291C2.98897 8.99288 3.10726 10.1996 3.56128 11.2959C4.01541 12.3923 4.78455 13.33 5.77124 13.9893C6.75793 14.6485 7.91854 15 9.10522 15C10.6964 14.9999 12.2223 14.3673 13.3474 13.2422C14.4725 12.117 15.1052 10.5912 15.1052 9C15.1052 7.81338 14.7527 6.65365 14.0935 5.66699C13.4343 4.68035 12.4974 3.91117 11.4011 3.45703ZM10.0554 7.93945L12.1951 8.25L10.6462 9.76074L11.0115 11.8916L9.09741 10.8857L7.18335 11.8916L7.54858 9.76074L5.99976 8.25L8.14038 7.93945L9.09741 6L10.0554 7.93945Z" fill="url(#paint0_linear_828_6453)"/>
<defs>
<linearGradient id="paint0_linear_828_6453" x1="1.60552" y1="1.5" x2="17.1272" y2="16.1233" gradientUnits="userSpaceOnUse">
<stop stop-color="white"/>
<stop offset="0.730769" stop-color="#E1ECFF"/>
<stop offset="0.9375" stop-color="#C2FFE5"/>
</linearGradient>
</defs>
</svg>
