<svg width="18" height="18" viewBox="0 0 18 18" fill="none" xmlns="http://www.w3.org/2000/svg">
<path d="M9.10486 1.5C11.0939 1.5 13.0021 2.28982 14.4086 3.69629C15.8151 5.10281 16.6049 7.01088 16.6049 9C16.6049 10.4834 16.1653 11.9336 15.3412 13.167C14.5171 14.4003 13.3454 15.3611 11.975 15.9287C10.6045 16.4964 9.09681 16.6448 7.64197 16.3555C6.1873 16.0661 4.85096 15.3524 3.80212 14.3037C2.75323 13.2548 2.03878 11.9177 1.74939 10.4629C1.46006 9.0081 1.60852 7.50026 2.17615 6.12988C2.74379 4.75951 3.70458 3.58776 4.93787 2.76367C6.17119 1.93959 7.62156 1.50003 9.10486 1.5ZM11.4008 3.45703C10.3046 3.00303 9.09861 2.88386 7.93494 3.11523C6.77105 3.34675 5.70179 3.9187 4.86267 4.75781C4.02367 5.59684 3.45163 6.66537 3.22009 7.8291C2.98859 8.99294 3.10781 10.1996 3.56189 11.2959C4.01602 12.3923 4.78516 13.33 5.77185 13.9893C6.75842 14.6484 7.91838 15 9.10486 15C10.6962 15 12.2228 14.3674 13.348 13.2422C14.473 12.117 15.1049 10.5911 15.1049 9C15.1049 7.81348 14.7532 6.6536 14.0941 5.66699C13.4348 4.6803 12.4971 3.91116 11.4008 3.45703ZM10.0551 7.93945L12.1957 8.25L10.6459 9.76074L11.0121 11.8916L9.09802 10.8857L7.18298 11.8916L7.54919 9.76074L5.99939 8.25L8.14001 7.93945L9.09802 6L10.0551 7.93945Z" fill="url(#paint0_linear_828_6415)"/>
<defs>
<linearGradient id="paint0_linear_828_6415" x1="-0.985587" y1="-2.24989" x2="17.7639" y2="16.5016" gradientUnits="userSpaceOnUse">
<stop stop-color="#E8EEFF"/>
<stop offset="1" stop-color="#768EC1"/>
</linearGradient>
</defs>
</svg>
