<svg width="18" height="18" viewBox="0 0 18 18" fill="none" xmlns="http://www.w3.org/2000/svg">
<path fill-rule="evenodd" clip-rule="evenodd" d="M9.02449 1.24414C9.14485 1.24419 9.26352 1.27231 9.37117 1.32617L15.5753 4.42773C15.6923 4.48631 15.793 4.57389 15.8673 4.68164C15.9416 4.78944 15.987 4.91465 16.0001 5.04492C16.0093 5.13662 16.7421 13.3963 9.33992 16.6885C9.24092 16.733 9.13304 16.7559 9.02449 16.7559C8.91607 16.7558 8.80893 16.7329 8.71003 16.6885C1.30789 13.3967 2.03957 5.13692 2.0489 5.04492C2.06199 4.91475 2.10756 4.78942 2.18171 4.68164C2.25585 4.57399 2.35594 4.48643 2.47273 4.42773L8.67683 1.32617C8.78457 1.27226 8.90401 1.24414 9.02449 1.24414ZM3.56941 5.61523C3.52682 7.17231 3.77642 12.5867 9.02449 15.124C14.2212 12.6067 14.5051 7.15588 14.4757 5.61328L9.02449 2.8877L3.56941 5.61523ZM13.0372 7.10547L8.22371 11.9189L5.34871 9.04395L6.44539 7.94727L8.22371 9.72559L11.9405 6.00879L13.0372 7.10547Z" fill="url(#paint0_linear_835_6943)"/>
<defs>
<linearGradient id="paint0_linear_835_6943" x1="-0.391894" y1="-2.63379" x2="18.8961" y2="14.7732" gradientUnits="userSpaceOnUse">
<stop stop-color="#E8EEFF"/>
<stop offset="1" stop-color="#768EC1"/>
</linearGradient>
</defs>
</svg>
