<svg width="18" height="18" viewBox="0 0 18 18" fill="none" xmlns="http://www.w3.org/2000/svg">
<path fill-rule="evenodd" clip-rule="evenodd" d="M9.02411 1.24414C9.14459 1.24414 9.26402 1.27226 9.37177 1.32617L15.5759 4.42773C15.6928 4.48627 15.7926 4.57402 15.8669 4.68164C15.9412 4.78944 15.9876 4.91465 16.0007 5.04492C16.0102 5.13973 16.7407 13.3971 9.33954 16.6885C9.24068 16.7329 9.13348 16.7558 9.02509 16.7559C8.91654 16.7559 8.80866 16.733 8.70966 16.6885C1.30877 13.3971 2.03897 5.13947 2.04852 5.04492C2.06162 4.91475 2.10718 4.78942 2.18134 4.68164C2.25549 4.57389 2.35646 4.48647 2.47333 4.42773L8.67743 1.32617C8.78509 1.27233 8.90374 1.24416 9.02411 1.24414ZM3.57001 5.61523C3.52742 7.17231 3.77686 12.5868 9.02509 15.124C14.2214 12.6066 14.5057 7.15585 14.4763 5.61328L9.02509 2.8877L3.57001 5.61523ZM13.0378 7.10547L8.22333 11.9189L5.34833 9.04395L6.44501 7.94727L8.22333 9.72559L11.9411 6.00879L13.0378 7.10547Z" fill="url(#paint0_linear_835_6971)"/>
<defs>
<linearGradient id="paint0_linear_835_6971" x1="2.02493" y1="1.24414" x2="17.8959" y2="14.7393" gradientUnits="userSpaceOnUse">
<stop stop-color="white"/>
<stop offset="0.730769" stop-color="#E1ECFF"/>
<stop offset="0.9375" stop-color="#C2FFE5"/>
</linearGradient>
</defs>
</svg>
