<svg width="18" height="18" viewBox="0 0 18 18" fill="none" xmlns="http://www.w3.org/2000/svg">
<path d="M13.5 2.25C14.3273 2.25 15 2.92275 15 3.75V5.25C15.8273 5.25 16.5 5.92275 16.5 6.75V14.25C16.5 15.0773 15.8273 15.75 15 15.75H3.75C2.8455 15.75 1.5 15.1508 1.5 13.5V4.5C1.5 3.2595 2.5095 2.25 3.75 2.25H13.5ZM3 13.5C3 14.1036 3.41233 14.2409 3.75879 14.25H15V6.75H3.75C3.48526 6.75 3.23549 6.69607 3 6.61133V13.5ZM13.5 12H12V9H13.5V12ZM3.75 3.75C3.55689 3.75864 3.37481 3.84174 3.24121 3.98145C3.10763 4.12115 3.0332 4.30671 3.0332 4.5C3.0332 4.69329 3.10763 4.87885 3.24121 5.01855C3.37481 5.15826 3.55689 5.24136 3.75 5.25H13.5V3.75H3.75Z" fill="url(#paint0_linear_828_6462)"/>
<defs>
<linearGradient id="paint0_linear_828_6462" x1="1.50029" y1="2.25" x2="15.4804" y2="16.8844" gradientUnits="userSpaceOnUse">
<stop stop-color="white"/>
<stop offset="0.730769" stop-color="#E1ECFF"/>
<stop offset="0.9375" stop-color="#C2FFE5"/>
</linearGradient>
</defs>
</svg>
